<svg width="102" height="102" viewBox="0 0 102 102" fill="none" xmlns="http://www.w3.org/2000/svg">
<path d="M71.7474 40.4462L52.6224 29.1305C52.1312 28.8395 51.5706 28.6862 50.9996 28.6868C50.4286 28.6873 49.8683 28.8417 49.3776 29.1337L30.2526 40.4493C29.7757 40.7306 29.3805 41.1314 29.106 41.6122C28.8316 42.0929 28.6873 42.637 28.6875 43.1906V65.1843C28.6875 66.3127 29.2836 67.355 30.2526 67.9256L49.3776 79.2412C49.8676 79.5354 50.4284 79.6908 51 79.6908C51.5716 79.6908 52.1324 79.5354 52.6224 79.2412L71.7474 67.9256C72.2243 67.6444 72.6195 67.2435 72.894 66.7628C73.1684 66.282 73.3127 65.738 73.3125 65.1843V43.1906C73.3126 42.6366 73.1684 42.0921 72.8939 41.6108C72.6195 41.1296 72.2243 40.7282 71.7474 40.4462ZM66.9375 63.3675L51 72.7961L35.0625 63.3675V45.0075L51 35.5788L66.9375 45.0075V63.3675Z" fill="#F8F8F8"/>
<path d="M19.125 64.3365V35.2856L38.8875 23.6066L35.6458 18.1178L14.3151 30.7243C13.8382 31.0063 13.443 31.4077 13.1686 31.889C12.8941 32.3703 12.7499 32.9147 12.75 33.4688V64.3365C10.891 64.9918 9.28022 66.2063 8.13883 67.8134C6.99744 69.4204 6.38132 71.3414 6.375 73.3125C6.375 78.5846 10.6654 82.875 15.9375 82.875C21.2096 82.875 25.5 78.5846 25.5 73.3125C25.4937 71.3414 24.8776 69.4204 23.7362 67.8134C22.5948 66.2063 20.984 64.9918 19.125 64.3365ZM15.9375 76.5C15.1168 76.4633 14.3419 76.1114 13.7741 75.5177C13.2063 74.9239 12.8894 74.134 12.8894 73.3125C12.8894 72.491 13.2063 71.7011 13.7741 71.1073C14.3419 70.5136 15.1168 70.1617 15.9375 70.125C16.7582 70.1617 17.5331 70.5136 18.1009 71.1073C18.6687 71.7011 18.9856 72.491 18.9856 73.3125C18.9856 74.134 18.6687 74.9239 18.1009 75.5177C17.5331 76.1114 16.7582 76.4633 15.9375 76.5ZM86.0625 63.75C80.7904 63.75 76.5 68.0404 76.5 73.3125C76.5 74.4377 76.7295 75.5023 77.0897 76.5064L51 91.9211L30.5872 79.8596L27.3456 85.3485L49.3776 98.3662C49.8683 98.6582 50.4286 98.8126 50.9996 98.8132C51.5706 98.8138 52.1312 98.6605 52.6224 98.3694L81.1824 81.4916C82.6168 82.3491 84.2743 82.875 86.0625 82.875C91.3346 82.875 95.625 78.5846 95.625 73.3125C95.625 68.0404 91.3346 63.75 86.0625 63.75ZM86.0625 76.5C85.2418 76.4633 84.4669 76.1114 83.8991 75.5177C83.3313 74.9239 83.0144 74.134 83.0144 73.3125C83.0144 72.491 83.3313 71.7011 83.8991 71.1073C84.4669 70.5136 85.2418 70.1617 86.0625 70.125C86.8832 70.1617 87.6581 70.5136 88.2259 71.1073C88.7937 71.7011 89.1106 72.491 89.1106 73.3125C89.1106 74.134 88.7937 74.9239 88.2259 75.5177C87.6581 76.1114 86.8832 76.4633 86.0625 76.5ZM51 22.3125C53.3301 22.3125 55.437 21.4423 57.0977 20.0557L82.875 35.2888V57.375H89.25V33.4688C89.2501 32.9147 89.1059 32.3703 88.8314 31.889C88.557 31.4077 88.1618 31.0063 87.6849 30.7243L60.3776 14.5892C60.4924 13.9931 60.5625 13.3811 60.5625 12.75C60.5625 7.47787 56.2721 3.1875 51 3.1875C45.7279 3.1875 41.4375 7.47787 41.4375 12.75C41.4375 18.0221 45.7279 22.3125 51 22.3125ZM51 9.5625C51.6313 9.56187 52.2487 9.74855 52.7738 10.0989C53.299 10.4493 53.7085 10.9475 53.9504 11.5307C54.1923 12.1138 54.2557 12.7556 54.1327 13.3749C54.0097 13.9941 53.7058 14.5629 53.2593 15.0093C52.8129 15.4558 52.2441 15.7597 51.6249 15.8827C51.0056 16.0057 50.3638 15.9423 49.7807 15.7004C49.1975 15.4585 48.6993 15.049 48.3489 14.5238C47.9985 13.9987 47.8119 13.3813 47.8125 12.75C47.8125 10.9905 49.2437 9.5625 51 9.5625Z" fill="#F8F8F8"/>
</svg>

