<svg width="112" height="113" viewBox="0 0 112 113" fill="none" xmlns="http://www.w3.org/2000/svg">
<path fill-rule="evenodd" clip-rule="evenodd" d="M55.9999 98.875C79.1956 98.875 97.9999 79.9027 97.9999 56.5C97.9999 33.0972 79.1956 14.125 55.9999 14.125C32.8043 14.125 13.9999 33.0972 13.9999 56.5C13.9999 79.9027 32.8043 98.875 55.9999 98.875ZM55.9999 103.583C81.7739 103.583 102.667 82.5041 102.667 56.5C102.667 30.4958 81.7739 9.41663 55.9999 9.41663C30.2259 9.41663 9.33325 30.4958 9.33325 56.5C9.33325 82.5041 30.2259 103.583 55.9999 103.583Z" fill="#4ECB71"/>
<path d="M28 83.8789C28 81.4471 29.8013 79.3919 32.2 79.1235C50.2017 77.113 61.88 77.2943 79.842 79.1682C80.739 79.2633 81.5891 79.6198 82.2885 80.1942C82.9879 80.7687 83.5064 81.5363 83.7806 82.4031C84.0548 83.27 84.0728 84.1987 83.8325 85.0757C83.5922 85.9528 83.1039 86.7402 82.4273 87.3419C61.229 105.985 49.1143 105.728 29.4933 87.3607C28.5367 86.4661 28 85.1925 28 83.8789Z" fill="#4ECB71"/>
<path fill-rule="evenodd" clip-rule="evenodd" d="M79.6015 81.5083C61.7819 79.6485 50.2715 79.4743 32.4542 81.4635C31.8677 81.5325 31.327 81.8173 30.9357 82.2634C30.5443 82.7095 30.3298 83.2855 30.3332 83.8813C30.3332 84.5545 30.6108 85.1925 31.0798 85.6351C40.8052 94.7363 48.1738 98.849 55.3768 98.8749C62.6055 98.9008 70.3708 94.8211 80.8942 85.5692C81.2285 85.269 81.4692 84.8772 81.5869 84.4416C81.7047 84.0059 81.6945 83.5452 81.5576 83.1153C81.4207 82.6854 81.1629 82.3048 80.8157 82.02C80.4684 81.7351 80.0466 81.5558 79.6015 81.5083ZM31.9432 76.7834C50.1338 74.7518 61.9825 74.9354 80.0845 76.8258C81.4339 76.9679 82.7129 77.5039 83.765 78.3681C84.8171 79.2323 85.5967 80.3873 86.0082 81.6916C86.4197 82.9959 86.4454 84.393 86.0821 85.7118C85.7187 87.0306 84.9822 88.214 83.9625 89.1169C73.2875 98.5053 64.3975 103.619 55.3628 103.583C46.3025 103.55 37.8045 98.35 27.9089 89.0863C27.2003 88.4205 26.6355 87.6144 26.2497 86.7184C25.8639 85.8224 25.6654 84.8558 25.6665 83.8789C25.6631 82.1237 26.3017 80.4289 27.4598 79.1192C28.618 77.8095 30.2144 76.9794 31.9432 76.7834Z" fill="#4ECB71"/>
<path d="M74.6666 47.0833C74.6666 52.0782 72.6999 56.8686 69.1992 60.4005C65.6986 63.9324 60.9506 65.9167 55.9999 65.9167C51.0492 65.9167 46.3013 63.9324 42.8006 60.4005C39.2999 56.8686 37.3333 52.0782 37.3333 47.0833C37.3333 42.0884 39.2999 37.2981 42.8006 33.7662C46.3013 30.2342 51.0492 28.25 55.9999 28.25C60.9506 28.25 65.6986 30.2342 69.1992 33.7662C72.6999 37.2981 74.6666 42.0884 74.6666 47.0833Z" fill="#4ECB71"/>
<path fill-rule="evenodd" clip-rule="evenodd" d="M55.9999 61.2083C59.7129 61.2083 63.2739 59.7202 65.8994 57.0712C68.5249 54.4223 69.9999 50.8295 69.9999 47.0833C69.9999 43.3372 68.5249 39.7444 65.8994 37.0955C63.2739 34.4465 59.7129 32.9583 55.9999 32.9583C52.2869 32.9583 48.7259 34.4465 46.1004 37.0955C43.4749 39.7444 41.9999 43.3372 41.9999 47.0833C41.9999 50.8295 43.4749 54.4223 46.1004 57.0712C48.7259 59.7202 52.2869 61.2083 55.9999 61.2083ZM55.9999 65.9167C60.9506 65.9167 65.6986 63.9324 69.1992 60.4005C72.6999 56.8686 74.6666 52.0782 74.6666 47.0833C74.6666 42.0884 72.6999 37.2981 69.1992 33.7662C65.6986 30.2342 60.9506 28.25 55.9999 28.25C51.0492 28.25 46.3013 30.2342 42.8006 33.7662C39.2999 37.2981 37.3333 42.0884 37.3333 47.0833C37.3333 52.0782 39.2999 56.8686 42.8006 60.4005C46.3013 63.9324 51.0492 65.9167 55.9999 65.9167Z" fill="#4ECB71"/>
</svg>
