<svg width="267" height="267" viewBox="0 0 267 267" fill="none" xmlns="http://www.w3.org/2000/svg">
<g clip-path="url(#clip0_4_16)">
<path d="M140.442 3.72131C139.68 2.57857 138.648 1.6416 137.437 0.993569C136.226 0.345533 134.873 0.00646973 133.5 0.00646973C132.126 0.00646973 130.774 0.345533 129.563 0.993569C128.352 1.6416 127.32 2.57857 126.558 3.72131L76.4955 78.8151C75.6593 80.0715 75.1797 81.5313 75.1076 83.0388C75.0354 84.5463 75.3736 86.0452 76.0859 87.3758C76.7983 88.7063 77.8582 89.8187 79.1528 90.5945C80.4474 91.3703 81.9282 91.7805 83.4375 91.7813H85.0728L51.3307 145.765C50.5413 147.028 50.1044 148.48 50.0653 149.968C50.0262 151.457 50.3864 152.93 51.1084 154.232C51.8304 155.535 52.888 156.621 54.1713 157.377C55.4546 158.133 56.9168 158.531 58.4062 158.531H61.5935L34.2594 213.199C33.622 214.472 33.3204 215.886 33.3834 217.307C33.4464 218.728 33.8719 220.11 34.6194 221.321C35.3669 222.532 36.4115 223.531 37.6541 224.224C38.8967 224.917 40.2959 225.281 41.7187 225.281H116.812V267H150.187V225.281H225.281C226.704 225.281 228.103 224.917 229.346 224.224C230.588 223.531 231.633 222.532 232.381 221.321C233.128 220.11 233.554 218.728 233.617 217.307C233.68 215.886 233.378 214.472 232.741 213.199L205.423 158.531H208.61C210.1 158.531 211.562 158.133 212.845 157.377C214.129 156.621 215.186 155.535 215.908 154.232C216.63 152.93 216.99 151.457 216.951 149.968C216.912 148.48 216.475 147.028 215.686 145.765L181.927 91.7813H183.562C185.072 91.7805 186.553 91.3703 187.847 90.5945C189.142 89.8187 190.202 88.7063 190.914 87.3758C191.626 86.0452 191.964 84.5463 191.892 83.0388C191.82 81.5313 191.341 80.0715 190.504 78.8151L140.442 3.72131Z" fill="#3E9A58"/>
</g>
<defs>
<clipPath id="clip0_4_16">
<rect width="267" height="267" fill="white"/>
</clipPath>
</defs>
</svg>
