<svg width="311" height="311" viewBox="0 0 311 311" fill="none" xmlns="http://www.w3.org/2000/svg">
<g clip-path="url(#clip0_4_18)">
<path d="M163.586 4.33459C162.698 3.00354 161.496 1.91216 160.085 1.15734C158.675 0.402507 157.1 0.00756836 155.5 0.00756836C153.9 0.00756836 152.325 0.402507 150.914 1.15734C149.504 1.91216 148.301 3.00354 147.414 4.33459L89.1014 91.8033C88.1275 93.2669 87.5688 94.9672 87.4848 96.7231C87.4008 98.4791 87.7946 100.225 88.6244 101.775C89.4542 103.325 90.6888 104.62 92.1967 105.524C93.7046 106.428 95.4295 106.905 97.1874 106.906H99.0923L59.7897 169.787C58.8702 171.258 58.3613 172.948 58.3158 174.682C58.2702 176.417 58.6897 178.132 59.5307 179.649C60.3717 181.166 61.6035 182.431 63.0983 183.311C64.5931 184.192 66.2963 184.656 68.0312 184.656H71.7437L39.9051 248.334C39.1626 249.815 38.8114 251.462 38.8848 253.118C38.9582 254.774 39.4537 256.383 40.3244 257.793C41.1951 259.203 42.4119 260.368 43.8592 261.175C45.3066 261.982 46.9363 262.406 48.5937 262.406H136.062V311H174.937V262.406H262.406C264.064 262.406 265.693 261.982 267.141 261.175C268.588 260.368 269.805 259.203 270.675 257.793C271.546 256.383 272.042 254.774 272.115 253.118C272.188 251.462 271.837 249.815 271.095 248.334L239.276 184.656H242.988C244.723 184.656 246.426 184.192 247.921 183.311C249.416 182.431 250.648 181.166 251.489 179.649C252.33 178.132 252.749 176.417 252.704 174.682C252.658 172.948 252.149 171.258 251.23 169.787L211.908 106.906H213.812C215.57 106.905 217.295 106.428 218.803 105.524C220.311 104.62 221.546 103.325 222.375 101.775C223.205 100.225 223.599 98.4791 223.515 96.7231C223.431 94.9672 222.872 93.2669 221.898 91.8033L163.586 4.33459Z" fill="#4ECB71"/>
</g>
<defs>
<clipPath id="clip0_4_18">
<rect width="311" height="311" fill="white"/>
</clipPath>
</defs>
</svg>
